<svg width="32" height="32" viewBox="0 0 32 32" fill="none" xmlns="http://www.w3.org/2000/svg">
<g clip-path="url(#clip0_179_1142)">
<rect width="32" height="32" fill="white"/>
<path d="M3.76136 22V7.45455H8.84659C9.85985 7.45455 10.6955 7.62973 11.3537 7.98011C12.0118 8.32576 12.5019 8.79214 12.8239 9.37926C13.1458 9.96165 13.3068 10.608 13.3068 11.3182C13.3068 11.9432 13.1955 12.4593 12.973 12.8665C12.7552 13.2737 12.4664 13.5956 12.1065 13.8324C11.7514 14.0691 11.3655 14.2443 10.9489 14.358V14.5C11.3939 14.5284 11.8414 14.6847 12.2912 14.9688C12.741 15.2528 13.1174 15.66 13.4205 16.1903C13.7235 16.7206 13.875 17.3693 13.875 18.1364C13.875 18.8655 13.7093 19.5213 13.3778 20.1037C13.0464 20.6861 12.5232 21.1477 11.8082 21.4886C11.0933 21.8295 10.1629 22 9.01705 22H3.76136ZM5.52273 20.4375H9.01705C10.1676 20.4375 10.9844 20.215 11.4673 19.7699C11.955 19.3201 12.1989 18.7756 12.1989 18.1364C12.1989 17.6439 12.0734 17.1894 11.8224 16.7727C11.5715 16.3513 11.214 16.0152 10.75 15.7642C10.286 15.5085 9.73674 15.3807 9.10227 15.3807H5.52273V20.4375ZM5.52273 13.8466H8.78977C9.32008 13.8466 9.7983 13.7424 10.2244 13.5341C10.6553 13.3258 10.9962 13.0322 11.2472 12.6534C11.5028 12.2746 11.6307 11.8295 11.6307 11.3182C11.6307 10.679 11.4081 10.1368 10.9631 9.69176C10.518 9.24195 9.8125 9.01705 8.84659 9.01705H5.52273V13.8466ZM16.7692 22V7.45455H18.5305V14.6705H18.701L25.2351 7.45455H27.5362L21.4283 14.017L27.5362 22H25.4055L20.3487 15.2386L18.5305 17.2841V22H16.7692Z" fill="#292D32"/>
</g>
<defs>
<clipPath id="clip0_179_1142">
<rect width="32" height="32"/>
</clipPath>
</defs>
</svg>
